<?xml version="1.0" encoding="utf-8" standalone="no"?>
<!DOCTYPE svg PUBLIC "-//W3C//DTD SVG 1.1//EN"
  "http://www.w3.org/Graphics/SVG/1.1/DTD/svg11.dtd">
<svg xmlns:xlink="http://www.w3.org/1999/xlink" width="720pt" height="288pt" viewBox="0 0 720 288" xmlns="http://www.w3.org/2000/svg" version="1.1">
 <metadata>
  <rdf:RDF xmlns:dc="http://purl.org/dc/elements/1.1/" xmlns:cc="http://creativecommons.org/ns#" xmlns:rdf="http://www.w3.org/1999/02/22-rdf-syntax-ns#">
   <cc:Work>
    <dc:type rdf:resource="http://purl.org/dc/dcmitype/StillImage"/>
    <dc:date>2026-09-27T06:01:20.927111</dc:date>
    <dc:format>image/svg+xml</dc:format>
    <dc:creator>
     <cc:Agent>
      <dc:title>Matplotlib v3.11.2, https://matplotlib.org/</dc:title>
     </cc:Agent>
    </dc:creator>
   </cc:Work>
  </rdf:RDF>
 </metadata>
 <defs>
  <style type="text/css">*{stroke-linejoin: round; stroke-linecap: butt}</style>
 </defs>
 <g id="figure_1">
  <g id="patch_1">
   <path d="M 0 288 
L 720 288 
L 720 0 
L 0 0 
z
" style="fill: #ffffff"/>
  </g>
  <g id="axes_1">
   <g id="patch_2">
    <path d="M 51.562344 259.877656 
L 354.6 259.877656 
L 354.6 49.202812 
L 51.562344 49.202812 
z
" style="fill: #ffffff"/>
   </g>
   <g id="patch_3">
    <path d="M 65.336783 259.877656 
L 104.692322 259.877656 
L 104.692322 73.990326 
L 65.336783 73.990326 
z
" clip-path="url(#p3406190f8f)" style="fill: #1f77b4"/>
   </g>
   <g id="patch_4">
    <path d="M 163.725632 259.877656 
L 203.081172 259.877656 
L 203.081172 87.588039 
L 163.725632 87.588039 
z
" clip-path="url(#p3406190f8f)" style="fill: #1f77b4"/>
   </g>
   <g id="patch_5">
    <path d="M 262.114482 259.877656 
L 301.470021 259.877656 
L 301.470021 133.846872 
L 262.114482 133.846872 
z
" clip-path="url(#p3406190f8f)" style="fill: #1f77b4"/>
   </g>
   <g id="patch_6">
    <path d="M 104.692322 259.877656 
L 144.047862 259.877656 
L 144.047862 59.234948 
L 104.692322 59.234948 
z
" clip-path="url(#p3406190f8f)" style="fill: #ff7f0e"/>
   </g>
   <g id="patch_7">
    <path d="M 203.081172 259.877656 
L 242.436712 259.877656 
L 242.436712 63.907643 
L 203.081172 63.907643 
z
" clip-path="url(#p3406190f8f)" style="fill: #ff7f0e"/>
   </g>
   <g id="patch_8">
    <path d="M 301.470021 259.877656 
L 340.825561 259.877656 
L 340.825561 117.856036 
L 301.470021 117.856036 
z
" clip-path="url(#p3406190f8f)" style="fill: #ff7f0e"/>
   </g>
   <g id="matplotlib.axis_1">
    <g id="xtick_1">
     <g id="line2d_1">
      <defs>
       <path id="m8e27dd8262" d="M 0 0 
L 0 3.5 
" style="stroke: #000000; stroke-width: 0.8"/>
      </defs>
      <g>
       <use xlink:href="#m8e27dd8262" x="104.692322" y="259.877656" style="stroke: #000000; stroke-width: 0.8"/>
      </g>
     </g>
     <g id="text_1">
      <!-- structured -->
      <g transform="translate(78.829041 274.476094) scale(0.1 -0.1)">
       <defs>
        <path id="DejaVuSans-56" d="M 2834 3397 
L 2834 2853 
Q 2591 2978 2328 3040 
Q 2066 3103 1784 3103 
Q 1356 3103 1142 2972 
Q 928 2841 928 2578 
Q 928 2378 1081 2264 
Q 1234 2150 1697 2047 
L 1894 2003 
Q 2506 1872 2764 1633 
Q 3022 1394 3022 966 
Q 3022 478 2636 193 
Q 2250 -91 1575 -91 
Q 1294 -91 989 -36 
Q 684 19 347 128 
L 347 722 
Q 666 556 975 473 
Q 1284 391 1588 391 
Q 1994 391 2212 530 
Q 2431 669 2431 922 
Q 2431 1156 2273 1281 
Q 2116 1406 1581 1522 
L 1381 1569 
Q 847 1681 609 1914 
Q 372 2147 372 2553 
Q 372 3047 722 3315 
Q 1072 3584 1716 3584 
Q 2034 3584 2315 3537 
Q 2597 3491 2834 3397 
z
" transform="scale(0.015625)"/>
        <path id="DejaVuSans-57" d="M 1172 4494 
L 1172 3500 
L 2356 3500 
L 2356 3053 
L 1172 3053 
L 1172 1153 
Q 1172 725 1289 603 
Q 1406 481 1766 481 
L 2356 481 
L 2356 0 
L 1766 0 
Q 1100 0 847 248 
Q 594 497 594 1153 
L 594 3053 
L 172 3053 
L 172 3500 
L 594 3500 
L 594 4494 
L 1172 4494 
z
" transform="scale(0.015625)"/>
        <path id="DejaVuSans-55" d="M 2631 2963 
Q 2534 3019 2420 3045 
Q 2306 3072 2169 3072 
Q 1681 3072 1420 2755 
Q 1159 2438 1159 1844 
L 1159 0 
L 581 0 
L 581 3500 
L 1159 3500 
L 1159 2956 
Q 1341 3275 1631 3429 
Q 1922 3584 2338 3584 
Q 2397 3584 2469 3576 
Q 2541 3569 2628 3553 
L 2631 2963 
z
" transform="scale(0.015625)"/>
        <path id="DejaVuSans-58" d="M 544 1381 
L 544 3500 
L 1119 3500 
L 1119 1403 
Q 1119 906 1312 657 
Q 1506 409 1894 409 
Q 2359 409 2629 706 
Q 2900 1003 2900 1516 
L 2900 3500 
L 3475 3500 
L 3475 0 
L 2900 0 
L 2900 538 
Q 2691 219 2414 64 
Q 2138 -91 1772 -91 
Q 1169 -91 856 284 
Q 544 659 544 1381 
z
M 1991 3584 
L 1991 3584 
z
" transform="scale(0.015625)"/>
        <path id="DejaVuSans-46" d="M 3122 3366 
L 3122 2828 
Q 2878 2963 2633 3030 
Q 2388 3097 2138 3097 
Q 1578 3097 1268 2742 
Q 959 2388 959 1747 
Q 959 1106 1268 751 
Q 1578 397 2138 397 
Q 2388 397 2633 464 
Q 2878 531 3122 666 
L 3122 134 
Q 2881 22 2623 -34 
Q 2366 -91 2075 -91 
Q 1284 -91 818 406 
Q 353 903 353 1747 
Q 353 2603 823 3093 
Q 1294 3584 2113 3584 
Q 2378 3584 2631 3529 
Q 2884 3475 3122 3366 
z
" transform="scale(0.015625)"/>
        <path id="DejaVuSans-48" d="M 3597 1894 
L 3597 1613 
L 953 1613 
Q 991 1019 1311 708 
Q 1631 397 2203 397 
Q 2534 397 2845 478 
Q 3156 559 3463 722 
L 3463 178 
Q 3153 47 2828 -22 
Q 2503 -91 2169 -91 
Q 1331 -91 842 396 
Q 353 884 353 1716 
Q 353 2575 817 3079 
Q 1281 3584 2069 3584 
Q 2775 3584 3186 3129 
Q 3597 2675 3597 1894 
z
M 3022 2063 
Q 3016 2534 2758 2815 
Q 2500 3097 2075 3097 
Q 1594 3097 1305 2825 
Q 1016 2553 972 2059 
L 3022 2063 
z
" transform="scale(0.015625)"/>
        <path id="DejaVuSans-47" d="M 2906 2969 
L 2906 4863 
L 3481 4863 
L 3481 0 
L 2906 0 
L 2906 525 
Q 2725 213 2448 61 
Q 2172 -91 1784 -91 
Q 1150 -91 751 415 
Q 353 922 353 1747 
Q 353 2572 751 3078 
Q 1150 3584 1784 3584 
Q 2172 3584 2448 3432 
Q 2725 3281 2906 2969 
z
M 947 1747 
Q 947 1113 1208 752 
Q 1469 391 1925 391 
Q 2381 391 2643 752 
Q 2906 1113 2906 1747 
Q 2906 2381 2643 2742 
Q 2381 3103 1925 3103 
Q 1469 3103 1208 2742 
Q 947 2381 947 1747 
z
" transform="scale(0.015625)"/>
       </defs>
       <use xlink:href="#DejaVuSans-56"/>
       <use xlink:href="#DejaVuSans-57" transform="translate(52.09375 0)"/>
       <use xlink:href="#DejaVuSans-55" transform="translate(91.296875 0)"/>
       <use xlink:href="#DejaVuSans-58" transform="translate(132.40625 0)"/>
       <use xlink:href="#DejaVuSans-46" transform="translate(195.78125 0)"/>
       <use xlink:href="#DejaVuSans-57" transform="translate(250.765625 0)"/>
       <use xlink:href="#DejaVuSans-58" transform="translate(289.96875 0)"/>
       <use xlink:href="#DejaVuSans-55" transform="translate(353.34375 0)"/>
       <use xlink:href="#DejaVuSans-48" transform="translate(392.25 0)"/>
       <use xlink:href="#DejaVuSans-47" transform="translate(453.78125 0)"/>
      </g>
     </g>
    </g>
    <g id="xtick_2">
     <g id="line2d_2">
      <g>
       <use xlink:href="#m8e27dd8262" x="203.081172" y="259.877656" style="stroke: #000000; stroke-width: 0.8"/>
      </g>
     </g>
     <g id="text_2">
      <!-- coding -->
      <g transform="translate(186.366328 274.476094) scale(0.1 -0.1)">
       <defs>
        <path id="DejaVuSans-52" d="M 1959 3097 
Q 1497 3097 1228 2736 
Q 959 2375 959 1747 
Q 959 1119 1226 758 
Q 1494 397 1959 397 
Q 2419 397 2687 759 
Q 2956 1122 2956 1747 
Q 2956 2369 2687 2733 
Q 2419 3097 1959 3097 
z
M 1959 3584 
Q 2709 3584 3137 3096 
Q 3566 2609 3566 1747 
Q 3566 888 3137 398 
Q 2709 -91 1959 -91 
Q 1206 -91 779 398 
Q 353 888 353 1747 
Q 353 2609 779 3096 
Q 1206 3584 1959 3584 
z
" transform="scale(0.015625)"/>
        <path id="DejaVuSans-4c" d="M 603 3500 
L 1178 3500 
L 1178 0 
L 603 0 
L 603 3500 
z
M 603 4863 
L 1178 4863 
L 1178 4134 
L 603 4134 
L 603 4863 
z
" transform="scale(0.015625)"/>
        <path id="DejaVuSans-51" d="M 3513 2113 
L 3513 0 
L 2938 0 
L 2938 2094 
Q 2938 2591 2744 2837 
Q 2550 3084 2163 3084 
Q 1697 3084 1428 2787 
Q 1159 2491 1159 1978 
L 1159 0 
L 581 0 
L 581 3500 
L 1159 3500 
L 1159 2956 
Q 1366 3272 1645 3428 
Q 1925 3584 2291 3584 
Q 2894 3584 3203 3211 
Q 3513 2838 3513 2113 
z
" transform="scale(0.015625)"/>
        <path id="DejaVuSans-4a" d="M 2906 1791 
Q 2906 2416 2648 2759 
Q 2391 3103 1925 3103 
Q 1463 3103 1205 2759 
Q 947 2416 947 1791 
Q 947 1169 1205 825 
Q 1463 481 1925 481 
Q 2391 481 2648 825 
Q 2906 1169 2906 1791 
z
M 3481 434 
Q 3481 -459 3084 -895 
Q 2688 -1331 1869 -1331 
Q 1566 -1331 1297 -1286 
Q 1028 -1241 775 -1147 
L 775 -588 
Q 1028 -725 1275 -790 
Q 1522 -856 1778 -856 
Q 2344 -856 2625 -561 
Q 2906 -266 2906 331 
L 2906 616 
Q 2728 306 2450 153 
Q 2172 0 1784 0 
Q 1141 0 747 490 
Q 353 981 353 1791 
Q 353 2603 747 3093 
Q 1141 3584 1784 3584 
Q 2172 3584 2450 3431 
Q 2728 3278 2906 2969 
L 2906 3500 
L 3481 3500 
L 3481 434 
z
" transform="scale(0.015625)"/>
       </defs>
       <use xlink:href="#DejaVuSans-46"/>
       <use xlink:href="#DejaVuSans-52" transform="translate(54.984375 0)"/>
       <use xlink:href="#DejaVuSans-47" transform="translate(116.171875 0)"/>
       <use xlink:href="#DejaVuSans-4c" transform="translate(179.65625 0)"/>
       <use xlink:href="#DejaVuSans-51" transform="translate(207.4375 0)"/>
       <use xlink:href="#DejaVuSans-4a" transform="translate(270.8125 0)"/>
      </g>
     </g>
    </g>
    <g id="xtick_3">
     <g id="line2d_3">
      <g>
       <use xlink:href="#m8e27dd8262" x="301.470021" y="259.877656" style="stroke: #000000; stroke-width: 0.8"/>
      </g>
     </g>
     <g id="text_3">
      <!-- prose -->
      <g transform="translate(287.609865 274.475312) scale(0.1 -0.1)">
       <defs>
        <path id="DejaVuSans-53" d="M 1159 525 
L 1159 -1331 
L 581 -1331 
L 581 3500 
L 1159 3500 
L 1159 2969 
Q 1341 3281 1617 3432 
Q 1894 3584 2278 3584 
Q 2916 3584 3314 3078 
Q 3713 2572 3713 1747 
Q 3713 922 3314 415 
Q 2916 -91 2278 -91 
Q 1894 -91 1617 61 
Q 1341 213 1159 525 
z
M 3116 1747 
Q 3116 2381 2855 2742 
Q 2594 3103 2138 3103 
Q 1681 3103 1420 2742 
Q 1159 2381 1159 1747 
Q 1159 1113 1420 752 
Q 1681 391 2138 391 
Q 2594 391 2855 752 
Q 3116 1113 3116 1747 
z
" transform="scale(0.015625)"/>
       </defs>
       <use xlink:href="#DejaVuSans-53"/>
       <use xlink:href="#DejaVuSans-55" transform="translate(63.484375 0)"/>
       <use xlink:href="#DejaVuSans-52" transform="translate(102.390625 0)"/>
       <use xlink:href="#DejaVuSans-56" transform="translate(163.578125 0)"/>
       <use xlink:href="#DejaVuSans-48" transform="translate(215.671875 0)"/>
      </g>
     </g>
    </g>
   </g>
   <g id="matplotlib.axis_2">
    <g id="ytick_1">
     <g id="line2d_4">
      <defs>
       <path id="mdf12839f03" d="M 0 0 
L -3.5 0 
" style="stroke: #000000; stroke-width: 0.8"/>
      </defs>
      <g>
       <use xlink:href="#mdf12839f03" x="51.562344" y="259.877656" style="stroke: #000000; stroke-width: 0.8"/>
      </g>
     </g>
     <g id="text_4">
      <!-- 0 -->
      <g transform="translate(38.199844 263.676484) scale(0.1 -0.1)">
       <defs>
        <path id="DejaVuSans-13" d="M 2034 4250 
Q 1547 4250 1301 3770 
Q 1056 3291 1056 2328 
Q 1056 1369 1301 889 
Q 1547 409 2034 409 
Q 2525 409 2770 889 
Q 3016 1369 3016 2328 
Q 3016 3291 2770 3770 
Q 2525 4250 2034 4250 
z
M 2034 4750 
Q 2819 4750 3233 4129 
Q 3647 3509 3647 2328 
Q 3647 1150 3233 529 
Q 2819 -91 2034 -91 
Q 1250 -91 836 529 
Q 422 1150 422 2328 
Q 422 3509 836 4129 
Q 1250 4750 2034 4750 
z
" transform="scale(0.015625)"/>
       </defs>
       <use xlink:href="#DejaVuSans-13"/>
      </g>
     </g>
    </g>
    <g id="ytick_2">
     <g id="line2d_5">
      <g>
       <use xlink:href="#mdf12839f03" x="51.562344" y="231.55829" style="stroke: #000000; stroke-width: 0.8"/>
      </g>
     </g>
     <g id="text_5">
      <!-- 20 -->
      <g transform="translate(31.837344 235.357118) scale(0.1 -0.1)">
       <defs>
        <path id="DejaVuSans-15" d="M 1228 531 
L 3431 531 
L 3431 0 
L 469 0 
L 469 531 
Q 828 903 1448 1529 
Q 2069 2156 2228 2338 
Q 2531 2678 2651 2914 
Q 2772 3150 2772 3378 
Q 2772 3750 2511 3984 
Q 2250 4219 1831 4219 
Q 1534 4219 1204 4116 
Q 875 4013 500 3803 
L 500 4441 
Q 881 4594 1212 4672 
Q 1544 4750 1819 4750 
Q 2544 4750 2975 4387 
Q 3406 4025 3406 3419 
Q 3406 3131 3298 2873 
Q 3191 2616 2906 2266 
Q 2828 2175 2409 1742 
Q 1991 1309 1228 531 
z
" transform="scale(0.015625)"/>
       </defs>
       <use xlink:href="#DejaVuSans-15"/>
       <use xlink:href="#DejaVuSans-13" transform="translate(63.625 0)"/>
      </g>
     </g>
    </g>
    <g id="ytick_3">
     <g id="line2d_6">
      <g>
       <use xlink:href="#mdf12839f03" x="51.562344" y="203.238924" style="stroke: #000000; stroke-width: 0.8"/>
      </g>
     </g>
     <g id="text_6">
      <!-- 40 -->
      <g transform="translate(31.837344 207.037752) scale(0.1 -0.1)">
       <defs>
        <path id="DejaVuSans-17" d="M 2419 4116 
L 825 1625 
L 2419 1625 
L 2419 4116 
z
M 2253 4666 
L 3047 4666 
L 3047 1625 
L 3713 1625 
L 3713 1100 
L 3047 1100 
L 3047 0 
L 2419 0 
L 2419 1100 
L 313 1100 
L 313 1709 
L 2253 4666 
z
" transform="scale(0.015625)"/>
       </defs>
       <use xlink:href="#DejaVuSans-17"/>
       <use xlink:href="#DejaVuSans-13" transform="translate(63.625 0)"/>
      </g>
     </g>
    </g>
    <g id="ytick_4">
     <g id="line2d_7">
      <g>
       <use xlink:href="#mdf12839f03" x="51.562344" y="174.919558" style="stroke: #000000; stroke-width: 0.8"/>
      </g>
     </g>
     <g id="text_7">
      <!-- 60 -->
      <g transform="translate(31.837344 178.718386) scale(0.1 -0.1)">
       <defs>
        <path id="DejaVuSans-19" d="M 2113 2584 
Q 1688 2584 1439 2293 
Q 1191 2003 1191 1497 
Q 1191 994 1439 701 
Q 1688 409 2113 409 
Q 2538 409 2786 701 
Q 3034 994 3034 1497 
Q 3034 2003 2786 2293 
Q 2538 2584 2113 2584 
z
M 3366 4563 
L 3366 3988 
Q 3128 4100 2886 4159 
Q 2644 4219 2406 4219 
Q 1781 4219 1451 3797 
Q 1122 3375 1075 2522 
Q 1259 2794 1537 2939 
Q 1816 3084 2150 3084 
Q 2853 3084 3261 2657 
Q 3669 2231 3669 1497 
Q 3669 778 3244 343 
Q 2819 -91 2113 -91 
Q 1303 -91 875 529 
Q 447 1150 447 2328 
Q 447 3434 972 4092 
Q 1497 4750 2381 4750 
Q 2619 4750 2861 4703 
Q 3103 4656 3366 4563 
z
" transform="scale(0.015625)"/>
       </defs>
       <use xlink:href="#DejaVuSans-19"/>
       <use xlink:href="#DejaVuSans-13" transform="translate(63.625 0)"/>
      </g>
     </g>
    </g>
    <g id="ytick_5">
     <g id="line2d_8">
      <g>
       <use xlink:href="#mdf12839f03" x="51.562344" y="146.600192" style="stroke: #000000; stroke-width: 0.8"/>
      </g>
     </g>
     <g id="text_8">
      <!-- 80 -->
      <g transform="translate(31.837344 150.39902) scale(0.1 -0.1)">
       <defs>
        <path id="DejaVuSans-1b" d="M 2034 2216 
Q 1584 2216 1326 1975 
Q 1069 1734 1069 1313 
Q 1069 891 1326 650 
Q 1584 409 2034 409 
Q 2484 409 2743 651 
Q 3003 894 3003 1313 
Q 3003 1734 2745 1975 
Q 2488 2216 2034 2216 
z
M 1403 2484 
Q 997 2584 770 2862 
Q 544 3141 544 3541 
Q 544 4100 942 4425 
Q 1341 4750 2034 4750 
Q 2731 4750 3128 4425 
Q 3525 4100 3525 3541 
Q 3525 3141 3298 2862 
Q 3072 2584 2669 2484 
Q 3125 2378 3379 2068 
Q 3634 1759 3634 1313 
Q 3634 634 3220 271 
Q 2806 -91 2034 -91 
Q 1263 -91 848 271 
Q 434 634 434 1313 
Q 434 1759 690 2068 
Q 947 2378 1403 2484 
z
M 1172 3481 
Q 1172 3119 1398 2916 
Q 1625 2713 2034 2713 
Q 2441 2713 2670 2916 
Q 2900 3119 2900 3481 
Q 2900 3844 2670 4047 
Q 2441 4250 2034 4250 
Q 1625 4250 1398 4047 
Q 1172 3844 1172 3481 
z
" transform="scale(0.015625)"/>
       </defs>
       <use xlink:href="#DejaVuSans-1b"/>
       <use xlink:href="#DejaVuSans-13" transform="translate(63.625 0)"/>
      </g>
     </g>
    </g>
    <g id="ytick_6">
     <g id="line2d_9">
      <g>
       <use xlink:href="#mdf12839f03" x="51.562344" y="118.280826" style="stroke: #000000; stroke-width: 0.8"/>
      </g>
     </g>
     <g id="text_9">
      <!-- 100 -->
      <g transform="translate(25.474844 122.079654) scale(0.1 -0.1)">
       <defs>
        <path id="DejaVuSans-14" d="M 794 531 
L 1825 531 
L 1825 4091 
L 703 3866 
L 703 4441 
L 1819 4666 
L 2450 4666 
L 2450 531 
L 3481 531 
L 3481 0 
L 794 0 
L 794 531 
z
" transform="scale(0.015625)"/>
       </defs>
       <use xlink:href="#DejaVuSans-14"/>
       <use xlink:href="#DejaVuSans-13" transform="translate(63.625 0)"/>
       <use xlink:href="#DejaVuSans-13" transform="translate(127.25 0)"/>
      </g>
     </g>
    </g>
    <g id="ytick_7">
     <g id="line2d_10">
      <g>
       <use xlink:href="#mdf12839f03" x="51.562344" y="89.96146" style="stroke: #000000; stroke-width: 0.8"/>
      </g>
     </g>
     <g id="text_10">
      <!-- 120 -->
      <g transform="translate(25.474844 93.760288) scale(0.1 -0.1)">
       <use xlink:href="#DejaVuSans-14"/>
       <use xlink:href="#DejaVuSans-15" transform="translate(63.625 0)"/>
       <use xlink:href="#DejaVuSans-13" transform="translate(127.25 0)"/>
      </g>
     </g>
    </g>
    <g id="ytick_8">
     <g id="line2d_11">
      <g>
       <use xlink:href="#mdf12839f03" x="51.562344" y="61.642094" style="stroke: #000000; stroke-width: 0.8"/>
      </g>
     </g>
     <g id="text_11">
      <!-- 140 -->
      <g transform="translate(25.474844 65.440922) scale(0.1 -0.1)">
       <use xlink:href="#DejaVuSans-14"/>
       <use xlink:href="#DejaVuSans-17" transform="translate(63.625 0)"/>
       <use xlink:href="#DejaVuSans-13" transform="translate(127.25 0)"/>
      </g>
     </g>
    </g>
    <g id="text_12">
     <!-- tokens/s -->
     <g transform="translate(19.0725 175.416016) rotate(-90) scale(0.1 -0.1)">
      <defs>
       <path id="DejaVuSans-4e" d="M 581 4863 
L 1159 4863 
L 1159 1991 
L 2875 3500 
L 3609 3500 
L 1753 1863 
L 3688 0 
L 2938 0 
L 1159 1709 
L 1159 0 
L 581 0 
L 581 4863 
z
" transform="scale(0.015625)"/>
       <path id="DejaVuSans-12" d="M 1625 4666 
L 2156 4666 
L 531 -594 
L 0 -594 
L 1625 4666 
z
" transform="scale(0.015625)"/>
      </defs>
      <use xlink:href="#DejaVuSans-57"/>
      <use xlink:href="#DejaVuSans-52" transform="translate(39.203125 0)"/>
      <use xlink:href="#DejaVuSans-4e" transform="translate(100.390625 0)"/>
      <use xlink:href="#DejaVuSans-48" transform="translate(154.734375 0)"/>
      <use xlink:href="#DejaVuSans-51" transform="translate(216.265625 0)"/>
      <use xlink:href="#DejaVuSans-56" transform="translate(279.640625 0)"/>
      <use xlink:href="#DejaVuSans-12" transform="translate(331.734375 0)"/>
      <use xlink:href="#DejaVuSans-56" transform="translate(365.421875 0)"/>
     </g>
    </g>
   </g>
   <g id="patch_9">
    <path d="M 51.562344 259.877656 
L 51.562344 49.202812 
" style="fill: none; stroke: #000000; stroke-width: 0.8; stroke-linejoin: miter; stroke-linecap: square"/>
   </g>
   <g id="patch_10">
    <path d="M 354.6 259.877656 
L 354.6 49.202812 
" style="fill: none; stroke: #000000; stroke-width: 0.8; stroke-linejoin: miter; stroke-linecap: square"/>
   </g>
   <g id="patch_11">
    <path d="M 51.562344 259.877656 
L 354.6 259.877656 
" style="fill: none; stroke: #000000; stroke-width: 0.8; stroke-linejoin: miter; stroke-linecap: square"/>
   </g>
   <g id="patch_12">
    <path d="M 51.562344 49.202812 
L 354.6 49.202812 
" style="fill: none; stroke: #000000; stroke-width: 0.8; stroke-linejoin: miter; stroke-linecap: square"/>
   </g>
   <g id="text_13">
    <!-- 1 user, stream tok/s -->
    <g transform="translate(142.879609 43.202812) scale(0.12 -0.12)">
     <defs>
      <path id="DejaVuSans-3" transform="scale(0.015625)"/>
      <path id="DejaVuSans-f" d="M 750 794 
L 1409 794 
L 1409 256 
L 897 -744 
L 494 -744 
L 750 256 
L 750 794 
z
" transform="scale(0.015625)"/>
      <path id="DejaVuSans-44" d="M 2194 1759 
Q 1497 1759 1228 1600 
Q 959 1441 959 1056 
Q 959 750 1161 570 
Q 1363 391 1709 391 
Q 2188 391 2477 730 
Q 2766 1069 2766 1631 
L 2766 1759 
L 2194 1759 
z
M 3341 1997 
L 3341 0 
L 2766 0 
L 2766 531 
Q 2569 213 2275 61 
Q 1981 -91 1556 -91 
Q 1019 -91 701 211 
Q 384 513 384 1019 
Q 384 1609 779 1909 
Q 1175 2209 1959 2209 
L 2766 2209 
L 2766 2266 
Q 2766 2663 2505 2880 
Q 2244 3097 1772 3097 
Q 1472 3097 1187 3025 
Q 903 2953 641 2809 
L 641 3341 
Q 956 3463 1253 3523 
Q 1550 3584 1831 3584 
Q 2591 3584 2966 3190 
Q 3341 2797 3341 1997 
z
" transform="scale(0.015625)"/>
      <path id="DejaVuSans-50" d="M 3328 2828 
Q 3544 3216 3844 3400 
Q 4144 3584 4550 3584 
Q 5097 3584 5394 3201 
Q 5691 2819 5691 2113 
L 5691 0 
L 5113 0 
L 5113 2094 
Q 5113 2597 4934 2840 
Q 4756 3084 4391 3084 
Q 3944 3084 3684 2787 
Q 3425 2491 3425 1978 
L 3425 0 
L 2847 0 
L 2847 2094 
Q 2847 2600 2669 2842 
Q 2491 3084 2119 3084 
Q 1678 3084 1418 2786 
Q 1159 2488 1159 1978 
L 1159 0 
L 581 0 
L 581 3500 
L 1159 3500 
L 1159 2956 
Q 1356 3278 1631 3431 
Q 1906 3584 2284 3584 
Q 2666 3584 2933 3390 
Q 3200 3197 3328 2828 
z
" transform="scale(0.015625)"/>
     </defs>
     <use xlink:href="#DejaVuSans-14"/>
     <use xlink:href="#DejaVuSans-3" transform="translate(63.625 0)"/>
     <use xlink:href="#DejaVuSans-58" transform="translate(95.40625 0)"/>
     <use xlink:href="#DejaVuSans-56" transform="translate(158.78125 0)"/>
     <use xlink:href="#DejaVuSans-48" transform="translate(210.875 0)"/>
     <use xlink:href="#DejaVuSans-55" transform="translate(272.40625 0)"/>
     <use xlink:href="#DejaVuSans-f" transform="translate(313.515625 0)"/>
     <use xlink:href="#DejaVuSans-3" transform="translate(345.296875 0)"/>
     <use xlink:href="#DejaVuSans-56" transform="translate(377.078125 0)"/>
     <use xlink:href="#DejaVuSans-57" transform="translate(429.171875 0)"/>
     <use xlink:href="#DejaVuSans-55" transform="translate(468.375 0)"/>
     <use xlink:href="#DejaVuSans-48" transform="translate(507.28125 0)"/>
     <use xlink:href="#DejaVuSans-44" transform="translate(568.8125 0)"/>
     <use xlink:href="#DejaVuSans-50" transform="translate(630.09375 0)"/>
     <use xlink:href="#DejaVuSans-3" transform="translate(727.5 0)"/>
     <use xlink:href="#DejaVuSans-57" transform="translate(759.28125 0)"/>
     <use xlink:href="#DejaVuSans-52" transform="translate(798.484375 0)"/>
     <use xlink:href="#DejaVuSans-4e" transform="translate(859.671875 0)"/>
     <use xlink:href="#DejaVuSans-12" transform="translate(917.578125 0)"/>
     <use xlink:href="#DejaVuSans-56" transform="translate(951.265625 0)"/>
    </g>
   </g>
   <g id="legend_1">
    <g id="patch_13">
     <path d="M 57.162344 255.877656 
L 210.623594 255.877656 
Q 212.223594 255.877656 212.223594 254.277656 
L 212.223594 231.076406 
Q 212.223594 229.476406 210.623594 229.476406 
L 57.162344 229.476406 
Q 55.562344 229.476406 55.562344 231.076406 
L 55.562344 254.277656 
Q 55.562344 255.877656 57.162344 255.877656 
z
" style="fill: #ffffff; opacity: 0.8; stroke: #cccccc; stroke-linejoin: miter"/>
    </g>
    <g id="patch_14">
     <path d="M 58.762344 238.755156 
L 74.762344 238.755156 
L 74.762344 233.155156 
L 58.762344 233.155156 
z
" style="fill: #1f77b4"/>
    </g>
    <g id="text_14">
     <!-- this rig (3× x16 + 1× x1), run 2 -->
     <g transform="translate(81.162344 238.755156) scale(0.08 -0.08)">
      <defs>
       <path id="DejaVuSans-4b" d="M 3513 2113 
L 3513 0 
L 2938 0 
L 2938 2094 
Q 2938 2591 2744 2837 
Q 2550 3084 2163 3084 
Q 1697 3084 1428 2787 
Q 1159 2491 1159 1978 
L 1159 0 
L 581 0 
L 581 4863 
L 1159 4863 
L 1159 2956 
Q 1366 3272 1645 3428 
Q 1925 3584 2291 3584 
Q 2894 3584 3203 3211 
Q 3513 2838 3513 2113 
z
" transform="scale(0.015625)"/>
       <path id="DejaVuSans-b" d="M 1984 4856 
Q 1566 4138 1362 3434 
Q 1159 2731 1159 2009 
Q 1159 1288 1364 580 
Q 1569 -128 1984 -844 
L 1484 -844 
Q 1016 -109 783 600 
Q 550 1309 550 2009 
Q 550 2706 781 3412 
Q 1013 4119 1484 4856 
L 1984 4856 
z
" transform="scale(0.015625)"/>
       <path id="DejaVuSans-16" d="M 2597 2516 
Q 3050 2419 3304 2112 
Q 3559 1806 3559 1356 
Q 3559 666 3084 287 
Q 2609 -91 1734 -91 
Q 1441 -91 1130 -33 
Q 819 25 488 141 
L 488 750 
Q 750 597 1062 519 
Q 1375 441 1716 441 
Q 2309 441 2620 675 
Q 2931 909 2931 1356 
Q 2931 1769 2642 2001 
Q 2353 2234 1838 2234 
L 1294 2234 
L 1294 2753 
L 1863 2753 
Q 2328 2753 2575 2939 
Q 2822 3125 2822 3475 
Q 2822 3834 2567 4026 
Q 2313 4219 1838 4219 
Q 1578 4219 1281 4162 
Q 984 4106 628 3988 
L 628 4550 
Q 988 4650 1302 4700 
Q 1616 4750 1894 4750 
Q 2613 4750 3031 4423 
Q 3450 4097 3450 3541 
Q 3450 3153 3228 2886 
Q 3006 2619 2597 2516 
z
" transform="scale(0.015625)"/>
       <path id="DejaVuSans-99" d="M 4488 3438 
L 3059 2003 
L 4488 575 
L 4116 197 
L 2681 1631 
L 1247 197 
L 878 575 
L 2303 2003 
L 878 3438 
L 1247 3816 
L 2681 2381 
L 4116 3816 
L 4488 3438 
z
" transform="scale(0.015625)"/>
       <path id="DejaVuSans-5b" d="M 3513 3500 
L 2247 1797 
L 3578 0 
L 2900 0 
L 1881 1375 
L 863 0 
L 184 0 
L 1544 1831 
L 300 3500 
L 978 3500 
L 1906 2253 
L 2834 3500 
L 3513 3500 
z
" transform="scale(0.015625)"/>
       <path id="DejaVuSans-e" d="M 2944 4013 
L 2944 2272 
L 4684 2272 
L 4684 1741 
L 2944 1741 
L 2944 0 
L 2419 0 
L 2419 1741 
L 678 1741 
L 678 2272 
L 2419 2272 
L 2419 4013 
L 2944 4013 
z
" transform="scale(0.015625)"/>
       <path id="DejaVuSans-c" d="M 513 4856 
L 1013 4856 
Q 1481 4119 1714 3412 
Q 1947 2706 1947 2009 
Q 1947 1309 1714 600 
Q 1481 -109 1013 -844 
L 513 -844 
Q 928 -128 1133 580 
Q 1338 1288 1338 2009 
Q 1338 2731 1133 3434 
Q 928 4138 513 4856 
z
" transform="scale(0.015625)"/>
      </defs>
      <use xlink:href="#DejaVuSans-57"/>
      <use xlink:href="#DejaVuSans-4b" transform="translate(39.203125 0)"/>
      <use xlink:href="#DejaVuSans-4c" transform="translate(102.578125 0)"/>
      <use xlink:href="#DejaVuSans-56" transform="translate(130.359375 0)"/>
      <use xlink:href="#DejaVuSans-3" transform="translate(182.453125 0)"/>
      <use xlink:href="#DejaVuSans-55" transform="translate(214.234375 0)"/>
      <use xlink:href="#DejaVuSans-4c" transform="translate(255.34375 0)"/>
      <use xlink:href="#DejaVuSans-4a" transform="translate(283.125 0)"/>
      <use xlink:href="#DejaVuSans-3" transform="translate(346.609375 0)"/>
      <use xlink:href="#DejaVuSans-b" transform="translate(378.390625 0)"/>
      <use xlink:href="#DejaVuSans-16" transform="translate(417.40625 0)"/>
      <use xlink:href="#DejaVuSans-99" transform="translate(481.03125 0)"/>
      <use xlink:href="#DejaVuSans-3" transform="translate(564.828125 0)"/>
      <use xlink:href="#DejaVuSans-5b" transform="translate(596.609375 0)"/>
      <use xlink:href="#DejaVuSans-14" transform="translate(655.796875 0)"/>
      <use xlink:href="#DejaVuSans-19" transform="translate(719.421875 0)"/>
      <use xlink:href="#DejaVuSans-3" transform="translate(783.046875 0)"/>
      <use xlink:href="#DejaVuSans-e" transform="translate(814.828125 0)"/>
      <use xlink:href="#DejaVuSans-3" transform="translate(898.625 0)"/>
      <use xlink:href="#DejaVuSans-14" transform="translate(930.40625 0)"/>
      <use xlink:href="#DejaVuSans-99" transform="translate(994.03125 0)"/>
      <use xlink:href="#DejaVuSans-3" transform="translate(1077.828125 0)"/>
      <use xlink:href="#DejaVuSans-5b" transform="translate(1109.609375 0)"/>
      <use xlink:href="#DejaVuSans-14" transform="translate(1168.796875 0)"/>
      <use xlink:href="#DejaVuSans-c" transform="translate(1232.421875 0)"/>
      <use xlink:href="#DejaVuSans-f" transform="translate(1271.4375 0)"/>
      <use xlink:href="#DejaVuSans-3" transform="translate(1303.21875 0)"/>
      <use xlink:href="#DejaVuSans-55" transform="translate(1335 0)"/>
      <use xlink:href="#DejaVuSans-58" transform="translate(1376.109375 0)"/>
      <use xlink:href="#DejaVuSans-51" transform="translate(1439.484375 0)"/>
      <use xlink:href="#DejaVuSans-3" transform="translate(1502.859375 0)"/>
      <use xlink:href="#DejaVuSans-15" transform="translate(1534.640625 0)"/>
     </g>
    </g>
    <g id="patch_15">
     <path d="M 58.762344 250.755781 
L 74.762344 250.755781 
L 74.762344 245.155781 
L 58.762344 245.155781 
z
" style="fill: #ff7f0e"/>
    </g>
    <g id="text_15">
     <!-- Morrowmake v1.4.1 (4× x16) -->
     <g transform="translate(81.162344 250.755781) scale(0.08 -0.08)">
      <defs>
       <path id="DejaVuSans-30" d="M 628 4666 
L 1569 4666 
L 2759 1491 
L 3956 4666 
L 4897 4666 
L 4897 0 
L 4281 0 
L 4281 4097 
L 3078 897 
L 2444 897 
L 1241 4097 
L 1241 0 
L 628 0 
L 628 4666 
z
" transform="scale(0.015625)"/>
       <path id="DejaVuSans-5a" d="M 269 3500 
L 844 3500 
L 1563 769 
L 2278 3500 
L 2956 3500 
L 3675 769 
L 4391 3500 
L 4966 3500 
L 4050 0 
L 3372 0 
L 2619 2869 
L 1863 0 
L 1184 0 
L 269 3500 
z
" transform="scale(0.015625)"/>
       <path id="DejaVuSans-59" d="M 191 3500 
L 800 3500 
L 1894 563 
L 2988 3500 
L 3597 3500 
L 2284 0 
L 1503 0 
L 191 3500 
z
" transform="scale(0.015625)"/>
       <path id="DejaVuSans-11" d="M 684 794 
L 1344 794 
L 1344 0 
L 684 0 
L 684 794 
z
" transform="scale(0.015625)"/>
      </defs>
      <use xlink:href="#DejaVuSans-30"/>
      <use xlink:href="#DejaVuSans-52" transform="translate(86.28125 0)"/>
      <use xlink:href="#DejaVuSans-55" transform="translate(147.46875 0)"/>
      <use xlink:href="#DejaVuSans-55" transform="translate(186.828125 0)"/>
      <use xlink:href="#DejaVuSans-52" transform="translate(225.734375 0)"/>
      <use xlink:href="#DejaVuSans-5a" transform="translate(286.921875 0)"/>
      <use xlink:href="#DejaVuSans-50" transform="translate(368.703125 0)"/>
      <use xlink:href="#DejaVuSans-44" transform="translate(466.109375 0)"/>
      <use xlink:href="#DejaVuSans-4e" transform="translate(527.390625 0)"/>
      <use xlink:href="#DejaVuSans-48" transform="translate(581.734375 0)"/>
      <use xlink:href="#DejaVuSans-3" transform="translate(643.265625 0)"/>
      <use xlink:href="#DejaVuSans-59" transform="translate(675.046875 0)"/>
      <use xlink:href="#DejaVuSans-14" transform="translate(734.234375 0)"/>
      <use xlink:href="#DejaVuSans-11" transform="translate(797.859375 0)"/>
      <use xlink:href="#DejaVuSans-17" transform="translate(829.640625 0)"/>
      <use xlink:href="#DejaVuSans-11" transform="translate(893.265625 0)"/>
      <use xlink:href="#DejaVuSans-14" transform="translate(925.046875 0)"/>
      <use xlink:href="#DejaVuSans-3" transform="translate(988.671875 0)"/>
      <use xlink:href="#DejaVuSans-b" transform="translate(1020.453125 0)"/>
      <use xlink:href="#DejaVuSans-17" transform="translate(1059.46875 0)"/>
      <use xlink:href="#DejaVuSans-99" transform="translate(1123.09375 0)"/>
      <use xlink:href="#DejaVuSans-3" transform="translate(1206.890625 0)"/>
      <use xlink:href="#DejaVuSans-5b" transform="translate(1238.671875 0)"/>
      <use xlink:href="#DejaVuSans-14" transform="translate(1297.859375 0)"/>
      <use xlink:href="#DejaVuSans-19" transform="translate(1361.484375 0)"/>
      <use xlink:href="#DejaVuSans-c" transform="translate(1425.109375 0)"/>
     </g>
    </g>
   </g>
  </g>
  <g id="axes_2">
   <g id="patch_16">
    <path d="M 406.162344 259.877656 
L 709.2 259.877656 
L 709.2 49.202812 
L 406.162344 49.202812 
z
" style="fill: #ffffff"/>
   </g>
   <g id="patch_17">
    <path d="M 419.936783 259.877656 
L 459.292322 259.877656 
L 459.292322 59.234948 
L 419.936783 59.234948 
z
" clip-path="url(#pe5773f586e)" style="fill: #1f77b4"/>
   </g>
   <g id="patch_18">
    <path d="M 518.325632 259.877656 
L 557.681172 259.877656 
L 557.681172 95.024619 
L 518.325632 95.024619 
z
" clip-path="url(#pe5773f586e)" style="fill: #1f77b4"/>
   </g>
   <g id="patch_19">
    <path d="M 616.714482 259.877656 
L 656.070021 259.877656 
L 656.070021 126.66222 
L 616.714482 126.66222 
z
" clip-path="url(#pe5773f586e)" style="fill: #1f77b4"/>
   </g>
   <g id="patch_20">
    <path d="M 459.292322 259.877656 
L 498.647862 259.877656 
L 498.647862 77.065251 
L 459.292322 77.065251 
z
" clip-path="url(#pe5773f586e)" style="fill: #ff7f0e"/>
   </g>
   <g id="patch_21">
    <path d="M 557.681172 259.877656 
L 597.036712 259.877656 
L 597.036712 88.021185 
L 557.681172 88.021185 
z
" clip-path="url(#pe5773f586e)" style="fill: #ff7f0e"/>
   </g>
   <g id="patch_22">
    <path d="M 656.070021 259.877656 
L 695.425561 259.877656 
L 695.425561 130.563921 
L 656.070021 130.563921 
z
" clip-path="url(#pe5773f586e)" style="fill: #ff7f0e"/>
   </g>
   <g id="matplotlib.axis_3">
    <g id="xtick_4">
     <g id="line2d_12">
      <g>
       <use xlink:href="#m8e27dd8262" x="459.292322" y="259.877656" style="stroke: #000000; stroke-width: 0.8"/>
      </g>
     </g>
     <g id="text_16">
      <!-- structured -->
      <g transform="translate(433.429041 274.476094) scale(0.1 -0.1)">
       <use xlink:href="#DejaVuSans-56"/>
       <use xlink:href="#DejaVuSans-57" transform="translate(52.09375 0)"/>
       <use xlink:href="#DejaVuSans-55" transform="translate(91.296875 0)"/>
       <use xlink:href="#DejaVuSans-58" transform="translate(132.40625 0)"/>
       <use xlink:href="#DejaVuSans-46" transform="translate(195.78125 0)"/>
       <use xlink:href="#DejaVuSans-57" transform="translate(250.765625 0)"/>
       <use xlink:href="#DejaVuSans-58" transform="translate(289.96875 0)"/>
       <use xlink:href="#DejaVuSans-55" transform="translate(353.34375 0)"/>
       <use xlink:href="#DejaVuSans-48" transform="translate(392.25 0)"/>
       <use xlink:href="#DejaVuSans-47" transform="translate(453.78125 0)"/>
      </g>
     </g>
    </g>
    <g id="xtick_5">
     <g id="line2d_13">
      <g>
       <use xlink:href="#m8e27dd8262" x="557.681172" y="259.877656" style="stroke: #000000; stroke-width: 0.8"/>
      </g>
     </g>
     <g id="text_17">
      <!-- coding -->
      <g transform="translate(540.966328 274.476094) scale(0.1 -0.1)">
       <use xlink:href="#DejaVuSans-46"/>
       <use xlink:href="#DejaVuSans-52" transform="translate(54.984375 0)"/>
       <use xlink:href="#DejaVuSans-47" transform="translate(116.171875 0)"/>
       <use xlink:href="#DejaVuSans-4c" transform="translate(179.65625 0)"/>
       <use xlink:href="#DejaVuSans-51" transform="translate(207.4375 0)"/>
       <use xlink:href="#DejaVuSans-4a" transform="translate(270.8125 0)"/>
      </g>
     </g>
    </g>
    <g id="xtick_6">
     <g id="line2d_14">
      <g>
       <use xlink:href="#m8e27dd8262" x="656.070021" y="259.877656" style="stroke: #000000; stroke-width: 0.8"/>
      </g>
     </g>
     <g id="text_18">
      <!-- prose -->
      <g transform="translate(642.209865 274.475312) scale(0.1 -0.1)">
       <use xlink:href="#DejaVuSans-53"/>
       <use xlink:href="#DejaVuSans-55" transform="translate(63.484375 0)"/>
       <use xlink:href="#DejaVuSans-52" transform="translate(102.390625 0)"/>
       <use xlink:href="#DejaVuSans-56" transform="translate(163.578125 0)"/>
       <use xlink:href="#DejaVuSans-48" transform="translate(215.671875 0)"/>
      </g>
     </g>
    </g>
   </g>
   <g id="matplotlib.axis_4">
    <g id="ytick_9">
     <g id="line2d_15">
      <g>
       <use xlink:href="#mdf12839f03" x="406.162344" y="259.877656" style="stroke: #000000; stroke-width: 0.8"/>
      </g>
     </g>
     <g id="text_19">
      <!-- 0 -->
      <g transform="translate(392.799844 263.676484) scale(0.1 -0.1)">
       <use xlink:href="#DejaVuSans-13"/>
      </g>
     </g>
    </g>
    <g id="ytick_10">
     <g id="line2d_16">
      <g>
       <use xlink:href="#mdf12839f03" x="406.162344" y="226.167089" style="stroke: #000000; stroke-width: 0.8"/>
      </g>
     </g>
     <g id="text_20">
      <!-- 100 -->
      <g transform="translate(380.074844 229.965917) scale(0.1 -0.1)">
       <use xlink:href="#DejaVuSans-14"/>
       <use xlink:href="#DejaVuSans-13" transform="translate(63.625 0)"/>
       <use xlink:href="#DejaVuSans-13" transform="translate(127.25 0)"/>
      </g>
     </g>
    </g>
    <g id="ytick_11">
     <g id="line2d_17">
      <g>
       <use xlink:href="#mdf12839f03" x="406.162344" y="192.456522" style="stroke: #000000; stroke-width: 0.8"/>
      </g>
     </g>
     <g id="text_21">
      <!-- 200 -->
      <g transform="translate(380.074844 196.25535) scale(0.1 -0.1)">
       <use xlink:href="#DejaVuSans-15"/>
       <use xlink:href="#DejaVuSans-13" transform="translate(63.625 0)"/>
       <use xlink:href="#DejaVuSans-13" transform="translate(127.25 0)"/>
      </g>
     </g>
    </g>
    <g id="ytick_12">
     <g id="line2d_18">
      <g>
       <use xlink:href="#mdf12839f03" x="406.162344" y="158.745955" style="stroke: #000000; stroke-width: 0.8"/>
      </g>
     </g>
     <g id="text_22">
      <!-- 300 -->
      <g transform="translate(380.074844 162.544783) scale(0.1 -0.1)">
       <use xlink:href="#DejaVuSans-16"/>
       <use xlink:href="#DejaVuSans-13" transform="translate(63.625 0)"/>
       <use xlink:href="#DejaVuSans-13" transform="translate(127.25 0)"/>
      </g>
     </g>
    </g>
    <g id="ytick_13">
     <g id="line2d_19">
      <g>
       <use xlink:href="#mdf12839f03" x="406.162344" y="125.035388" style="stroke: #000000; stroke-width: 0.8"/>
      </g>
     </g>
     <g id="text_23">
      <!-- 400 -->
      <g transform="translate(380.074844 128.834216) scale(0.1 -0.1)">
       <use xlink:href="#DejaVuSans-17"/>
       <use xlink:href="#DejaVuSans-13" transform="translate(63.625 0)"/>
       <use xlink:href="#DejaVuSans-13" transform="translate(127.25 0)"/>
      </g>
     </g>
    </g>
    <g id="ytick_14">
     <g id="line2d_20">
      <g>
       <use xlink:href="#mdf12839f03" x="406.162344" y="91.32482" style="stroke: #000000; stroke-width: 0.8"/>
      </g>
     </g>
     <g id="text_24">
      <!-- 500 -->
      <g transform="translate(380.074844 95.123649) scale(0.1 -0.1)">
       <defs>
        <path id="DejaVuSans-18" d="M 691 4666 
L 3169 4666 
L 3169 4134 
L 1269 4134 
L 1269 2991 
Q 1406 3038 1543 3061 
Q 1681 3084 1819 3084 
Q 2600 3084 3056 2656 
Q 3513 2228 3513 1497 
Q 3513 744 3044 326 
Q 2575 -91 1722 -91 
Q 1428 -91 1123 -41 
Q 819 9 494 109 
L 494 744 
Q 775 591 1075 516 
Q 1375 441 1709 441 
Q 2250 441 2565 725 
Q 2881 1009 2881 1497 
Q 2881 1984 2565 2268 
Q 2250 2553 1709 2553 
Q 1456 2553 1204 2497 
Q 953 2441 691 2322 
L 691 4666 
z
" transform="scale(0.015625)"/>
       </defs>
       <use xlink:href="#DejaVuSans-18"/>
       <use xlink:href="#DejaVuSans-13" transform="translate(63.625 0)"/>
       <use xlink:href="#DejaVuSans-13" transform="translate(127.25 0)"/>
      </g>
     </g>
    </g>
    <g id="ytick_15">
     <g id="line2d_21">
      <g>
       <use xlink:href="#mdf12839f03" x="406.162344" y="57.614253" style="stroke: #000000; stroke-width: 0.8"/>
      </g>
     </g>
     <g id="text_25">
      <!-- 600 -->
      <g transform="translate(380.074844 61.413081) scale(0.1 -0.1)">
       <use xlink:href="#DejaVuSans-19"/>
       <use xlink:href="#DejaVuSans-13" transform="translate(63.625 0)"/>
       <use xlink:href="#DejaVuSans-13" transform="translate(127.25 0)"/>
      </g>
     </g>
    </g>
    <g id="text_26">
     <!-- tokens/s -->
     <g transform="translate(373.6725 175.416016) rotate(-90) scale(0.1 -0.1)">
      <use xlink:href="#DejaVuSans-57"/>
      <use xlink:href="#DejaVuSans-52" transform="translate(39.203125 0)"/>
      <use xlink:href="#DejaVuSans-4e" transform="translate(100.390625 0)"/>
      <use xlink:href="#DejaVuSans-48" transform="translate(154.734375 0)"/>
      <use xlink:href="#DejaVuSans-51" transform="translate(216.265625 0)"/>
      <use xlink:href="#DejaVuSans-56" transform="translate(279.640625 0)"/>
      <use xlink:href="#DejaVuSans-12" transform="translate(331.734375 0)"/>
      <use xlink:href="#DejaVuSans-56" transform="translate(365.421875 0)"/>
     </g>
    </g>
   </g>
   <g id="patch_23">
    <path d="M 406.162344 259.877656 
L 406.162344 49.202812 
" style="fill: none; stroke: #000000; stroke-width: 0.8; stroke-linejoin: miter; stroke-linecap: square"/>
   </g>
   <g id="patch_24">
    <path d="M 709.2 259.877656 
L 709.2 49.202812 
" style="fill: none; stroke: #000000; stroke-width: 0.8; stroke-linejoin: miter; stroke-linecap: square"/>
   </g>
   <g id="patch_25">
    <path d="M 406.162344 259.877656 
L 709.2 259.877656 
" style="fill: none; stroke: #000000; stroke-width: 0.8; stroke-linejoin: miter; stroke-linecap: square"/>
   </g>
   <g id="patch_26">
    <path d="M 406.162344 49.202812 
L 709.2 49.202812 
" style="fill: none; stroke: #000000; stroke-width: 0.8; stroke-linejoin: miter; stroke-linecap: square"/>
   </g>
   <g id="text_27">
    <!-- 8 users, aggregate tok/s -->
    <g transform="translate(484.528047 43.202812) scale(0.12 -0.12)">
     <use xlink:href="#DejaVuSans-1b"/>
     <use xlink:href="#DejaVuSans-3" transform="translate(63.625 0)"/>
     <use xlink:href="#DejaVuSans-58" transform="translate(95.40625 0)"/>
     <use xlink:href="#DejaVuSans-56" transform="translate(158.78125 0)"/>
     <use xlink:href="#DejaVuSans-48" transform="translate(210.875 0)"/>
     <use xlink:href="#DejaVuSans-55" transform="translate(272.40625 0)"/>
     <use xlink:href="#DejaVuSans-56" transform="translate(313.515625 0)"/>
     <use xlink:href="#DejaVuSans-f" transform="translate(365.609375 0)"/>
     <use xlink:href="#DejaVuSans-3" transform="translate(397.390625 0)"/>
     <use xlink:href="#DejaVuSans-44" transform="translate(429.171875 0)"/>
     <use xlink:href="#DejaVuSans-4a" transform="translate(490.453125 0)"/>
     <use xlink:href="#DejaVuSans-4a" transform="translate(553.9375 0)"/>
     <use xlink:href="#DejaVuSans-55" transform="translate(617.421875 0)"/>
     <use xlink:href="#DejaVuSans-48" transform="translate(656.328125 0)"/>
     <use xlink:href="#DejaVuSans-4a" transform="translate(717.859375 0)"/>
     <use xlink:href="#DejaVuSans-44" transform="translate(781.34375 0)"/>
     <use xlink:href="#DejaVuSans-57" transform="translate(842.625 0)"/>
     <use xlink:href="#DejaVuSans-48" transform="translate(881.828125 0)"/>
     <use xlink:href="#DejaVuSans-3" transform="translate(943.359375 0)"/>
     <use xlink:href="#DejaVuSans-57" transform="translate(975.140625 0)"/>
     <use xlink:href="#DejaVuSans-52" transform="translate(1014.34375 0)"/>
     <use xlink:href="#DejaVuSans-4e" transform="translate(1075.53125 0)"/>
     <use xlink:href="#DejaVuSans-12" transform="translate(1133.4375 0)"/>
     <use xlink:href="#DejaVuSans-56" transform="translate(1167.125 0)"/>
    </g>
   </g>
  </g>
  <g id="text_28">
   <!-- GLM-5.3-Flash W4A16 + DFlash2 k=3, PP4, 4× CMP 170HX, 180 W -->
   <g transform="translate(159.107812 14.878125) scale(0.12 -0.12)">
    <defs>
     <path id="DejaVuSans-2a" d="M 3809 666 
L 3809 1919 
L 2778 1919 
L 2778 2438 
L 4434 2438 
L 4434 434 
Q 4069 175 3628 42 
Q 3188 -91 2688 -91 
Q 1594 -91 976 548 
Q 359 1188 359 2328 
Q 359 3472 976 4111 
Q 1594 4750 2688 4750 
Q 3144 4750 3555 4637 
Q 3966 4525 4313 4306 
L 4313 3634 
Q 3963 3931 3569 4081 
Q 3175 4231 2741 4231 
Q 1884 4231 1454 3753 
Q 1025 3275 1025 2328 
Q 1025 1384 1454 906 
Q 1884 428 2741 428 
Q 3075 428 3337 486 
Q 3600 544 3809 666 
z
" transform="scale(0.015625)"/>
     <path id="DejaVuSans-2f" d="M 628 4666 
L 1259 4666 
L 1259 531 
L 3531 531 
L 3531 0 
L 628 0 
L 628 4666 
z
" transform="scale(0.015625)"/>
     <path id="DejaVuSans-10" d="M 313 2009 
L 1997 2009 
L 1997 1497 
L 313 1497 
L 313 2009 
z
" transform="scale(0.015625)"/>
     <path id="DejaVuSans-29" d="M 628 4666 
L 3309 4666 
L 3309 4134 
L 1259 4134 
L 1259 2759 
L 3109 2759 
L 3109 2228 
L 1259 2228 
L 1259 0 
L 628 0 
L 628 4666 
z
" transform="scale(0.015625)"/>
     <path id="DejaVuSans-4f" d="M 603 4863 
L 1178 4863 
L 1178 0 
L 603 0 
L 603 4863 
z
" transform="scale(0.015625)"/>
     <path id="DejaVuSans-3a" d="M 213 4666 
L 850 4666 
L 1831 722 
L 2809 4666 
L 3519 4666 
L 4500 722 
L 5478 4666 
L 6119 4666 
L 4947 0 
L 4153 0 
L 3169 4050 
L 2175 0 
L 1381 0 
L 213 4666 
z
" transform="scale(0.015625)"/>
     <path id="DejaVuSans-24" d="M 2188 4044 
L 1331 1722 
L 3047 1722 
L 2188 4044 
z
M 1831 4666 
L 2547 4666 
L 4325 0 
L 3669 0 
L 3244 1197 
L 1141 1197 
L 716 0 
L 50 0 
L 1831 4666 
z
" transform="scale(0.015625)"/>
     <path id="DejaVuSans-27" d="M 1259 4147 
L 1259 519 
L 2022 519 
Q 2988 519 3436 956 
Q 3884 1394 3884 2338 
Q 3884 3275 3436 3711 
Q 2988 4147 2022 4147 
L 1259 4147 
z
M 628 4666 
L 1925 4666 
Q 3281 4666 3915 4102 
Q 4550 3538 4550 2338 
Q 4550 1131 3912 565 
Q 3275 0 1925 0 
L 628 0 
L 628 4666 
z
" transform="scale(0.015625)"/>
     <path id="DejaVuSans-20" d="M 678 2906 
L 4684 2906 
L 4684 2381 
L 678 2381 
L 678 2906 
z
M 678 1631 
L 4684 1631 
L 4684 1100 
L 678 1100 
L 678 1631 
z
" transform="scale(0.015625)"/>
     <path id="DejaVuSans-33" d="M 1259 4147 
L 1259 2394 
L 2053 2394 
Q 2494 2394 2734 2622 
Q 2975 2850 2975 3272 
Q 2975 3691 2734 3919 
Q 2494 4147 2053 4147 
L 1259 4147 
z
M 628 4666 
L 2053 4666 
Q 2838 4666 3239 4311 
Q 3641 3956 3641 3272 
Q 3641 2581 3239 2228 
Q 2838 1875 2053 1875 
L 1259 1875 
L 1259 0 
L 628 0 
L 628 4666 
z
" transform="scale(0.015625)"/>
     <path id="DejaVuSans-26" d="M 4122 4306 
L 4122 3641 
Q 3803 3938 3442 4084 
Q 3081 4231 2675 4231 
Q 1875 4231 1450 3742 
Q 1025 3253 1025 2328 
Q 1025 1406 1450 917 
Q 1875 428 2675 428 
Q 3081 428 3442 575 
Q 3803 722 4122 1019 
L 4122 359 
Q 3791 134 3420 21 
Q 3050 -91 2638 -91 
Q 1578 -91 968 557 
Q 359 1206 359 2328 
Q 359 3453 968 4101 
Q 1578 4750 2638 4750 
Q 3056 4750 3426 4639 
Q 3797 4528 4122 4306 
z
" transform="scale(0.015625)"/>
     <path id="DejaVuSans-1a" d="M 525 4666 
L 3525 4666 
L 3525 4397 
L 1831 0 
L 1172 0 
L 2766 4134 
L 525 4134 
L 525 4666 
z
" transform="scale(0.015625)"/>
     <path id="DejaVuSans-2b" d="M 628 4666 
L 1259 4666 
L 1259 2753 
L 3553 2753 
L 3553 4666 
L 4184 4666 
L 4184 0 
L 3553 0 
L 3553 2222 
L 1259 2222 
L 1259 0 
L 628 0 
L 628 4666 
z
" transform="scale(0.015625)"/>
     <path id="DejaVuSans-3b" d="M 403 4666 
L 1081 4666 
L 2241 2931 
L 3406 4666 
L 4084 4666 
L 2584 2425 
L 4184 0 
L 3506 0 
L 2194 1984 
L 872 0 
L 191 0 
L 1856 2491 
L 403 4666 
z
" transform="scale(0.015625)"/>
    </defs>
    <use xlink:href="#DejaVuSans-2a"/>
    <use xlink:href="#DejaVuSans-2f" transform="translate(77.484375 0)"/>
    <use xlink:href="#DejaVuSans-30" transform="translate(133.203125 0)"/>
    <use xlink:href="#DejaVuSans-10" transform="translate(219.484375 0)"/>
    <use xlink:href="#DejaVuSans-18" transform="translate(255.5625 0)"/>
    <use xlink:href="#DejaVuSans-11" transform="translate(319.1875 0)"/>
    <use xlink:href="#DejaVuSans-16" transform="translate(350.96875 0)"/>
    <use xlink:href="#DejaVuSans-10" transform="translate(414.59375 0)"/>
    <use xlink:href="#DejaVuSans-29" transform="translate(450.671875 0)"/>
    <use xlink:href="#DejaVuSans-4f" transform="translate(508.1875 0)"/>
    <use xlink:href="#DejaVuSans-44" transform="translate(535.96875 0)"/>
    <use xlink:href="#DejaVuSans-56" transform="translate(597.25 0)"/>
    <use xlink:href="#DejaVuSans-4b" transform="translate(649.34375 0)"/>
    <use xlink:href="#DejaVuSans-3" transform="translate(712.71875 0)"/>
    <use xlink:href="#DejaVuSans-3a" transform="translate(744.5 0)"/>
    <use xlink:href="#DejaVuSans-17" transform="translate(843.375 0)"/>
    <use xlink:href="#DejaVuSans-24" transform="translate(907 0)"/>
    <use xlink:href="#DejaVuSans-14" transform="translate(975.40625 0)"/>
    <use xlink:href="#DejaVuSans-19" transform="translate(1039.03125 0)"/>
    <use xlink:href="#DejaVuSans-3" transform="translate(1102.65625 0)"/>
    <use xlink:href="#DejaVuSans-e" transform="translate(1134.4375 0)"/>
    <use xlink:href="#DejaVuSans-3" transform="translate(1218.234375 0)"/>
    <use xlink:href="#DejaVuSans-27" transform="translate(1250.015625 0)"/>
    <use xlink:href="#DejaVuSans-29" transform="translate(1327.015625 0)"/>
    <use xlink:href="#DejaVuSans-4f" transform="translate(1384.53125 0)"/>
    <use xlink:href="#DejaVuSans-44" transform="translate(1412.3125 0)"/>
    <use xlink:href="#DejaVuSans-56" transform="translate(1473.59375 0)"/>
    <use xlink:href="#DejaVuSans-4b" transform="translate(1525.6875 0)"/>
    <use xlink:href="#DejaVuSans-15" transform="translate(1589.0625 0)"/>
    <use xlink:href="#DejaVuSans-3" transform="translate(1652.6875 0)"/>
    <use xlink:href="#DejaVuSans-4e" transform="translate(1684.46875 0)"/>
    <use xlink:href="#DejaVuSans-20" transform="translate(1742.375 0)"/>
    <use xlink:href="#DejaVuSans-16" transform="translate(1826.171875 0)"/>
    <use xlink:href="#DejaVuSans-f" transform="translate(1889.796875 0)"/>
    <use xlink:href="#DejaVuSans-3" transform="translate(1921.578125 0)"/>
    <use xlink:href="#DejaVuSans-33" transform="translate(1953.359375 0)"/>
    <use xlink:href="#DejaVuSans-33" transform="translate(2013.65625 0)"/>
    <use xlink:href="#DejaVuSans-17" transform="translate(2073.953125 0)"/>
    <use xlink:href="#DejaVuSans-f" transform="translate(2137.578125 0)"/>
    <use xlink:href="#DejaVuSans-3" transform="translate(2169.359375 0)"/>
    <use xlink:href="#DejaVuSans-17" transform="translate(2201.140625 0)"/>
    <use xlink:href="#DejaVuSans-99" transform="translate(2264.765625 0)"/>
    <use xlink:href="#DejaVuSans-3" transform="translate(2348.5625 0)"/>
    <use xlink:href="#DejaVuSans-26" transform="translate(2380.34375 0)"/>
    <use xlink:href="#DejaVuSans-30" transform="translate(2450.171875 0)"/>
    <use xlink:href="#DejaVuSans-33" transform="translate(2536.453125 0)"/>
    <use xlink:href="#DejaVuSans-3" transform="translate(2596.75 0)"/>
    <use xlink:href="#DejaVuSans-14" transform="translate(2628.53125 0)"/>
    <use xlink:href="#DejaVuSans-1a" transform="translate(2692.15625 0)"/>
    <use xlink:href="#DejaVuSans-13" transform="translate(2755.78125 0)"/>
    <use xlink:href="#DejaVuSans-2b" transform="translate(2819.40625 0)"/>
    <use xlink:href="#DejaVuSans-3b" transform="translate(2894.609375 0)"/>
    <use xlink:href="#DejaVuSans-f" transform="translate(2963.109375 0)"/>
    <use xlink:href="#DejaVuSans-3" transform="translate(2994.890625 0)"/>
    <use xlink:href="#DejaVuSans-14" transform="translate(3026.671875 0)"/>
    <use xlink:href="#DejaVuSans-1b" transform="translate(3090.296875 0)"/>
    <use xlink:href="#DejaVuSans-13" transform="translate(3153.921875 0)"/>
    <use xlink:href="#DejaVuSans-3" transform="translate(3217.546875 0)"/>
    <use xlink:href="#DejaVuSans-3a" transform="translate(3249.328125 0)"/>
   </g>
  </g>
 </g>
 <defs>
  <clipPath id="p3406190f8f">
   <rect x="51.562344" y="49.202812" width="303.037656" height="210.674844"/>
  </clipPath>
  <clipPath id="pe5773f586e">
   <rect x="406.162344" y="49.202812" width="303.037656" height="210.674844"/>
  </clipPath>
 </defs>
</svg>
